<svg width="323" height="158" viewBox="0 0 323 158" fill="none" xmlns="http://www.w3.org/2000/svg">
<g filter="url(#filter0_dd_333_4)">
<rect x="8" y="4" width="307" height="150" fill="white"/>
<rect x="8" y="4" width="307" height="150" fill="black"/>
</g>
<path d="M44.1171 50.9831H31V68.4725H44.1171V50.9831Z" fill="white"/>
<path d="M69.4768 50.9831H56.3597V68.4725H69.4768V50.9831Z" fill="white"/>
<path d="M69.4768 50.9831C69.4768 45.8809 67.4499 40.9874 63.842 37.3795C60.234 33.7716 55.3406 31.7447 50.2384 31.7447C45.136 31.7447 40.2427 33.7716 36.6348 37.3795C33.0269 40.9874 31 45.8809 31 50.9831H50.2384H69.4768Z" fill="#6D42EB"/>
<path d="M184.907 50.9831H171.79V68.4725H184.907V50.9831Z" fill="white"/>
<path d="M210.267 50.9831H198.024V68.4725H210.267V50.9831Z" fill="white"/>
<path d="M210.267 50.9831C210.267 45.8809 208.24 40.9874 204.632 37.3795C201.024 33.7716 196.131 31.7447 191.028 31.7447C185.926 31.7447 181.033 33.7716 177.425 37.3795C173.817 40.9874 171.79 45.8809 171.79 50.9831H191.028H210.267Z" fill="#FF3A5E"/>
<path d="M261.861 50.9831C261.861 45.8809 259.834 40.9874 256.226 37.3795C252.618 33.7716 247.725 31.7447 242.622 31.7447C237.52 31.7447 232.627 33.7716 229.018 37.3795C225.411 40.9874 223.384 45.8809 223.384 50.9831H242.622H261.861Z" fill="#1E42FF"/>
<path d="M118.447 50.9831H105.33V33.4937H118.447V50.9831Z" fill="white"/>
<path d="M93.0875 50.9831H79.9704V33.4937H93.0875V50.9831Z" fill="white"/>
<path d="M79.9704 50.9831C79.9704 56.0853 81.9973 60.9787 85.6051 64.5868C89.2132 68.1946 94.1066 70.2215 99.2088 70.2215C104.311 70.2215 109.204 68.1946 112.812 64.5868C116.42 60.9787 118.447 56.0853 118.447 50.9831H79.9704Z" fill="#00C087"/>
<path d="M143.807 50.9831H131.564V23H143.807V50.9831Z" fill="white"/>
<path d="M150.803 44.8618H137.686V33.4937H150.803V44.8618Z" fill="white"/>
<path d="M131.564 50.9831C131.564 56.0853 133.591 60.9787 137.199 64.5868C140.807 68.1946 145.7 70.2215 150.803 70.2215V50.9831H131.564Z" fill="#FAE35C"/>
<path d="M285.471 50.9831H272.354V23H285.471V50.9831Z" fill="white"/>
<path d="M291.593 44.8618H278.475V33.4937H291.593V44.8618Z" fill="white"/>
<path d="M272.354 50.9831C272.354 56.0853 274.381 60.9787 277.989 64.5868C281.597 68.1946 286.49 70.2215 291.593 70.2215V50.9831H272.354Z" fill="#ACFB5B"/>
<path d="M256.425 64.5868C258.485 62.5383 260.033 60.0758 260.986 57.3959H249.588C249.524 57.4637 249.459 57.5306 249.392 57.5966C247.627 59.3507 245.233 60.336 242.739 60.336C240.243 60.336 237.85 59.3507 236.085 57.5966C234.32 55.8427 233.329 53.4636 233.329 50.9831H223.384C223.384 56.0853 225.423 60.9787 229.053 64.5868C232.683 68.1946 237.606 70.2215 242.739 70.2215C247.872 70.2215 252.795 68.1946 256.425 64.5868Z" fill="white"/>
<path d="M37.5 133V98H57V101.5H42.5V113H54V116.5H42.5V129.5H57V133H37.5ZM62.2383 108H65.7383L66.2383 111H66.4883C66.9549 110.467 67.5549 109.883 68.2883 109.25C69.8549 108.083 71.5049 107.5 73.2383 107.5C75.1716 107.5 76.8549 108.083 78.2883 109.25C78.9549 109.85 79.4383 110.433 79.7383 111C80.2049 110.5 80.8883 109.917 81.7883 109.25C83.6549 108.083 85.4716 107.5 87.2383 107.5C88.7383 107.5 90.0883 107.867 91.2883 108.6C92.5216 109.3 93.4883 110.3 94.1883 111.6C94.8883 112.9 95.2383 114.367 95.2383 116V133H90.2383V116C90.2383 114.633 89.8216 113.5 88.9883 112.6C88.1549 111.7 87.1549 111.25 85.9883 111.25C84.9549 111.25 83.855 111.667 82.6883 112.5C82.3216 112.733 81.8383 113.15 81.2383 113.75V133H76.2383V116C76.2383 114.633 75.8216 113.5 74.9883 112.6C74.1549 111.7 73.1549 111.25 71.9883 111.25C70.9216 111.25 69.8216 111.75 68.6883 112.75C68.2549 113.117 67.7716 113.617 67.2383 114.25V133H62.2383V108ZM102.473 108H105.973L106.473 111H106.723C107.089 110.467 107.673 109.883 108.473 109.25C110.106 108.083 111.939 107.5 113.973 107.5C115.606 107.5 117.106 108 118.473 109C119.839 109.967 120.923 111.433 121.723 113.4C122.556 115.333 122.973 117.7 122.973 120.5C122.973 124.733 122.056 127.967 120.223 130.2C118.389 132.4 115.973 133.5 112.973 133.5C111.639 133.5 110.339 133.25 109.073 132.75C108.439 132.55 107.906 132.3 107.473 132V141.5L105.973 143H102.473V108ZM112.223 130C113.956 130 115.339 129.25 116.373 127.75C117.439 126.217 117.973 123.8 117.973 120.5C117.973 117.333 117.473 115 116.473 113.5C115.506 112 114.256 111.25 112.723 111.25C111.489 111.25 110.239 111.75 108.973 112.75C108.439 113.217 107.939 113.717 107.473 114.25V129C107.806 129.167 108.256 129.333 108.823 129.5C109.956 129.833 111.089 130 112.223 130ZM129.23 133V99.5L130.73 98H134.23V133H129.23ZM151.23 133.5C147.864 133.5 145.23 132.4 143.33 130.2C141.43 128 140.48 124.767 140.48 120.5C140.48 116.233 141.43 113 143.33 110.8C145.23 108.6 147.864 107.5 151.23 107.5C154.564 107.5 157.18 108.6 159.08 110.8C161.014 113 161.98 116.233 161.98 120.5C161.98 124.767 161.014 128 159.08 130.2C157.18 132.4 154.564 133.5 151.23 133.5ZM151.23 130C152.964 130 154.347 129.25 155.38 127.75C156.447 126.217 156.98 123.8 156.98 120.5C156.98 117.2 156.447 114.8 155.38 113.3C154.347 111.767 152.964 111 151.23 111C149.497 111 148.097 111.767 147.03 113.3C145.997 114.8 145.48 117.2 145.48 120.5C145.48 123.8 145.997 126.217 147.03 127.75C148.097 129.25 149.497 130 151.23 130ZM171.244 143.5C169.877 143.5 168.661 143.25 167.594 142.75C167.027 142.55 166.577 142.3 166.244 142L167.494 138.75H167.994C168.327 139.083 168.594 139.3 168.794 139.4C169.427 139.8 170.077 140 170.744 140C171.611 140 172.377 139.667 173.044 139C173.744 138.367 174.227 137.533 174.494 136.5L175.494 133H173.994L165.444 108H170.244L175.744 124.5C175.911 125 176.144 125.85 176.444 127.05C176.544 127.35 176.661 127.833 176.794 128.5H176.994C177.061 127.967 177.161 127.483 177.294 127.05L177.944 124.5L182.494 108H187.494L179.494 136.5C178.894 138.6 177.877 140.283 176.444 141.55C175.011 142.85 173.277 143.5 171.244 143.5ZM201.725 133.5C198.258 133.5 195.558 132.4 193.625 130.2C191.691 128 190.725 124.767 190.725 120.5C190.725 116.267 191.658 113.05 193.525 110.85C195.391 108.617 197.875 107.5 200.975 107.5C204.075 107.5 206.558 108.617 208.425 110.85C210.291 113.05 211.225 116.267 211.225 120.5V121.25L210.225 122.25H195.725C195.725 124.817 196.291 126.75 197.425 128.05C198.558 129.35 200.158 130 202.225 130C203.458 130 204.741 129.633 206.075 128.9C206.775 128.5 207.325 128.117 207.725 127.75H208.225L209.975 130.75C209.375 131.25 208.625 131.717 207.725 132.15C205.991 133.05 203.991 133.5 201.725 133.5ZM206.225 118.75C206.225 116.117 205.741 114.167 204.775 112.9C203.841 111.633 202.575 111 200.975 111C199.375 111 198.091 111.633 197.125 112.9C196.191 114.167 195.725 116.117 195.725 118.75H206.225ZM226.969 133.5C223.502 133.5 220.802 132.4 218.869 130.2C216.935 128 215.969 124.767 215.969 120.5C215.969 116.267 216.902 113.05 218.769 110.85C220.635 108.617 223.119 107.5 226.219 107.5C229.319 107.5 231.802 108.617 233.669 110.85C235.535 113.05 236.469 116.267 236.469 120.5V121.25L235.469 122.25H220.969C220.969 124.817 221.535 126.75 222.669 128.05C223.802 129.35 225.402 130 227.469 130C228.702 130 229.985 129.633 231.319 128.9C232.019 128.5 232.569 128.117 232.969 127.75H233.469L235.219 130.75C234.619 131.25 233.869 131.717 232.969 132.15C231.235 133.05 229.235 133.5 226.969 133.5ZM231.469 118.75C231.469 116.117 230.985 114.167 230.019 112.9C229.085 111.633 227.819 111 226.219 111C224.619 111 223.335 111.633 222.369 112.9C221.435 114.167 220.969 116.117 220.969 118.75H231.469ZM242.463 108H245.963L246.463 111H246.713C247.046 110.5 247.613 109.917 248.413 109.25C249.98 108.083 251.746 107.5 253.713 107.5C254.58 107.5 255.346 107.583 256.013 107.75L256.963 108L256.213 112H255.713C255.48 111.967 255.13 111.883 254.663 111.75C253.93 111.583 253.196 111.5 252.463 111.5C251.363 111.5 250.18 112 248.913 113C248.48 113.367 247.996 113.867 247.463 114.5V133H242.463V108ZM267.975 133.5C265.241 133.5 262.941 133.05 261.075 132.15C260.108 131.717 259.325 131.25 258.725 130.75L260.475 127.75H260.975C261.341 128.083 261.925 128.467 262.725 128.9C264.258 129.633 265.841 130 267.475 130C269.475 130 270.925 129.683 271.825 129.05C272.758 128.417 273.225 127.567 273.225 126.5C273.225 125.4 272.741 124.567 271.775 124C270.841 123.433 269.375 122.817 267.375 122.15C265.608 121.55 264.191 121 263.125 120.5C262.058 120 261.141 119.283 260.375 118.35C259.608 117.417 259.225 116.217 259.225 114.75C259.225 112.517 260.008 110.75 261.575 109.45C263.175 108.15 265.558 107.5 268.725 107.5C271.091 107.5 273.241 107.967 275.175 108.9C276.108 109.333 276.875 109.783 277.475 110.25L275.725 113.25H275.225C274.725 112.883 274.158 112.517 273.525 112.15C272.058 111.383 270.625 111 269.225 111C267.558 111 266.308 111.317 265.475 111.95C264.641 112.55 264.225 113.317 264.225 114.25C264.225 115.35 264.691 116.183 265.625 116.75C266.591 117.317 268.075 117.933 270.075 118.6C271.841 119.2 273.258 119.75 274.325 120.25C275.391 120.75 276.308 121.467 277.075 122.4C277.841 123.333 278.225 124.533 278.225 126C278.225 128.367 277.391 130.217 275.725 131.55C274.058 132.85 271.475 133.5 267.975 133.5Z" fill="white"/>
<defs>
<filter id="filter0_dd_333_4" x="0" y="0" width="323" height="158" filterUnits="userSpaceOnUse" color-interpolation-filters="sRGB">
<feFlood flood-opacity="0" result="BackgroundImageFix"/>
<feColorMatrix in="SourceAlpha" type="matrix" values="0 0 0 0 0 0 0 0 0 0 0 0 0 0 0 0 0 0 127 0" result="hardAlpha"/>
<feOffset dx="-4"/>
<feGaussianBlur stdDeviation="2"/>
<feComposite in2="hardAlpha" operator="out"/>
<feColorMatrix type="matrix" values="0 0 0 0 0 0 0 0 0 0 0 0 0 0 0 0 0 0 0.25 0"/>
<feBlend mode="normal" in2="BackgroundImageFix" result="effect1_dropShadow_333_4"/>
<feColorMatrix in="SourceAlpha" type="matrix" values="0 0 0 0 0 0 0 0 0 0 0 0 0 0 0 0 0 0 127 0" result="hardAlpha"/>
<feOffset dx="4"/>
<feGaussianBlur stdDeviation="2"/>
<feComposite in2="hardAlpha" operator="out"/>
<feColorMatrix type="matrix" values="0 0 0 0 0 0 0 0 0 0 0 0 0 0 0 0 0 0 0.25 0"/>
<feBlend mode="normal" in2="effect1_dropShadow_333_4" result="effect2_dropShadow_333_4"/>
<feBlend mode="normal" in="SourceGraphic" in2="effect2_dropShadow_333_4" result="shape"/>
</filter>
</defs>
</svg>
